<svg width="30" height="30" viewBox="0 0 30 30" fill="none" xmlns="http://www.w3.org/2000/svg">
<path d="M2.5 25H27.5V27.5H2.5V25ZM5 15H7.5V23.75H5V15ZM11.25 15H13.75V23.75H11.25V15ZM16.25 15H18.75V23.75H16.25V15ZM22.5 15H25V23.75H22.5V15ZM2.5 8.75L15 2.5L27.5 8.75V13.75H2.5V8.75ZM15 10C15.3315 10 15.6495 9.8683 15.8839 9.63388C16.1183 9.39946 16.25 9.08152 16.25 8.75C16.25 8.41848 16.1183 8.10054 15.8839 7.86612C15.6495 7.6317 15.3315 7.5 15 7.5C14.6685 7.5 14.3505 7.6317 14.1161 7.86612C13.8817 8.10054 13.75 8.41848 13.75 8.75C13.75 9.08152 13.8817 9.39946 14.1161 9.63388C14.3505 9.8683 14.6685 10 15 10Z" fill="white"/>
</svg>
