<svg width="24" height="24" viewBox="0 0 24 24" fill="none" xmlns="http://www.w3.org/2000/svg">
<path d="M9.98983 13.8915L16.5744 7.30691C16.779 7.1023 17.0394 7 17.3557 7C17.6719 7 17.9323 7.1023 18.1369 7.30691C18.3415 7.51152 18.4438 7.77192 18.4438 8.08813C18.4438 8.40434 18.3415 8.66475 18.1369 8.86936L10.771 16.2352C10.5478 16.4584 10.2874 16.57 9.98983 16.57C9.69222 16.57 9.43181 16.4584 9.2086 16.2352L6.30691 13.3335C6.1023 13.1289 6 12.8685 6 12.5523C6 12.2361 6.1023 11.9757 6.30691 11.771C6.51152 11.5664 6.77192 11.4641 7.08813 11.4641C7.40434 11.4641 7.66475 11.5664 7.86936 11.771L9.98983 13.8915Z" fill="#00FF94"/>
</svg>
