<svg width="25" height="25" viewBox="0 0 25 25" fill="none" xmlns="http://www.w3.org/2000/svg">
<path fill-rule="evenodd" clip-rule="evenodd" d="M2 6.875C2 5.839 2.84 5 3.875 5H21.125C22.16 5 23 5.84 23 6.875V9.901C23.0001 10.0327 22.9655 10.1622 22.8996 10.2763C22.8338 10.3904 22.7391 10.4851 22.625 10.551C22.2825 10.7482 21.998 11.0322 21.8002 11.3744C21.6024 11.7165 21.4982 12.1048 21.4982 12.5C21.4982 12.8952 21.6024 13.2835 21.8002 13.6256C21.998 13.9678 22.2825 14.2518 22.625 14.449C22.7391 14.5149 22.8338 14.6096 22.8996 14.7237C22.9655 14.8378 23.0001 14.9673 23 15.099V18.125C23 19.16 22.16 20 21.125 20H3.875C3.37772 20 2.90081 19.8025 2.54918 19.4508C2.19754 19.0992 2 18.6223 2 18.125V15.099C1.99981 14.9674 2.03428 14.838 2.09993 14.7239C2.16558 14.6098 2.2601 14.515 2.374 14.449C2.71651 14.2518 3.00099 13.9678 3.19881 13.6256C3.39662 13.2835 3.50077 12.8952 3.50077 12.5C3.50077 12.1048 3.39662 11.7165 3.19881 11.3744C3.00099 11.0322 2.71651 10.7482 2.374 10.551C2.2601 10.485 2.16558 10.3902 2.09993 10.2761C2.03428 10.162 1.99981 10.0326 2 9.901V6.875ZM17 5.75C17.1989 5.75 17.3897 5.82902 17.5303 5.96967C17.671 6.11032 17.75 6.30109 17.75 6.5V7.25C17.75 7.44891 17.671 7.63968 17.5303 7.78033C17.3897 7.92098 17.1989 8 17 8C16.8011 8 16.6103 7.92098 16.4697 7.78033C16.329 7.63968 16.25 7.44891 16.25 7.25V6.5C16.25 6.30109 16.329 6.11032 16.4697 5.96967C16.6103 5.82902 16.8011 5.75 17 5.75ZM17.75 10.25C17.75 10.0511 17.671 9.86032 17.5303 9.71967C17.3897 9.57902 17.1989 9.5 17 9.5C16.8011 9.5 16.6103 9.57902 16.4697 9.71967C16.329 9.86032 16.25 10.0511 16.25 10.25V11C16.25 11.1989 16.329 11.3897 16.4697 11.5303C16.6103 11.671 16.8011 11.75 17 11.75C17.1989 11.75 17.3897 11.671 17.5303 11.5303C17.671 11.3897 17.75 11.1989 17.75 11V10.25ZM17 13.25C17.1989 13.25 17.3897 13.329 17.5303 13.4697C17.671 13.6103 17.75 13.8011 17.75 14V14.75C17.75 14.9489 17.671 15.1397 17.5303 15.2803C17.3897 15.421 17.1989 15.5 17 15.5C16.8011 15.5 16.6103 15.421 16.4697 15.2803C16.329 15.1397 16.25 14.9489 16.25 14.75V14C16.25 13.8011 16.329 13.6103 16.4697 13.4697C16.6103 13.329 16.8011 13.25 17 13.25ZM17.75 17.75C17.75 17.5511 17.671 17.3603 17.5303 17.2197C17.3897 17.079 17.1989 17 17 17C16.8011 17 16.6103 17.079 16.4697 17.2197C16.329 17.3603 16.25 17.5511 16.25 17.75V18.5C16.25 18.6989 16.329 18.8897 16.4697 19.0303C16.6103 19.171 16.8011 19.25 17 19.25C17.1989 19.25 17.3897 19.171 17.5303 19.0303C17.671 18.8897 17.75 18.6989 17.75 18.5V17.75ZM6.5 12.5C6.5 12.3011 6.57902 12.1103 6.71967 11.9697C6.86032 11.829 7.05109 11.75 7.25 11.75H12.5C12.6989 11.75 12.8897 11.829 13.0303 11.9697C13.171 12.1103 13.25 12.3011 13.25 12.5C13.25 12.6989 13.171 12.8897 13.0303 13.0303C12.8897 13.171 12.6989 13.25 12.5 13.25H7.25C7.05109 13.25 6.86032 13.171 6.71967 13.0303C6.57902 12.8897 6.5 12.6989 6.5 12.5ZM7.25 14.75C7.05109 14.75 6.86032 14.829 6.71967 14.9697C6.57902 15.1103 6.5 15.3011 6.5 15.5C6.5 15.6989 6.57902 15.8897 6.71967 16.0303C6.86032 16.171 7.05109 16.25 7.25 16.25H10.25C10.4489 16.25 10.6397 16.171 10.7803 16.0303C10.921 15.8897 11 15.6989 11 15.5C11 15.3011 10.921 15.1103 10.7803 14.9697C10.6397 14.829 10.4489 14.75 10.25 14.75H7.25Z" fill="#041E49"/>
</svg>
